<svg xmlns="http://www.w3.org/2000/svg" viewBox="0 0 64 64" role="img" aria-label="SessionScan">
  <rect width="64" height="64" rx="10" fill="#0a0610"/>
  <circle cx="32" cy="32" r="22" fill="none" stroke="#00e8d1" stroke-width="1.4" opacity=".55"/>
  <circle cx="32" cy="32" r="14" fill="none" stroke="#ff3cac" stroke-width="1.2" opacity=".85"/>
  <path d="M32 32 L50 22" stroke="#3dff8a" stroke-width="1.6" stroke-linecap="round"/>
  <circle cx="32" cy="32" r="3" fill="#ff3cac"/>
  <path d="M22 40c0-4 4-7 10-7s10 3 10 7" fill="none" stroke="#e8f7f4" stroke-width="1.5" stroke-linecap="round"/>
  <path d="M20 36c-2 0-3 2-3 4v3c0 1 1 2 2 2h2" fill="none" stroke="#e8f7f4" stroke-width="1.5" stroke-linecap="round"/>
  <path d="M44 36c2 0 3 2 3 4v3c0 1-1 2-2 2h-2" fill="none" stroke="#e8f7f4" stroke-width="1.5" stroke-linecap="round"/>
</svg>
